/* XPM */
static char * diminutivevaultcoin32_xpm[] = {
"32 32 185 2",
"  	c None",
". 	c #CFCBEC",
"+ 	c #D4D1EF",
"@ 	c #D6D3EF",
"# 	c #D7D3EF",
"$ 	c #D2CEEE",
"% 	c #CBC7EB",
"& 	c #D8D5F0",
"* 	c #D2CFEE",
"= 	c #C4C0E9",
"- 	c #B9B4E5",
"; 	c #B4AFE3",
"> 	c #BAB5E5",
", 	c #C7C3EA",
"' 	c #D4D1EE",
") 	c #DAD7F0",
"! 	c #CCC8EC",
"~ 	c #BEB9E7",
"{ 	c #D8D4F0",
"] 	c #A9A3DF",
"^ 	c #968ED8",
"/ 	c #9289D7",
"( 	c #938AD7",
"_ 	c #948CD8",
": 	c #948BD8",
"< 	c #9189D7",
"[ 	c #AAA3E0",
"} 	c #CDCAEC",
"| 	c #D5D2EF",
"1 	c #BCB6E6",
"2 	c #C6C2EA",
"3 	c #D7D4F0",
"4 	c #AEA8E1",
"5 	c #9188D7",
"6 	c #968ED9",
"7 	c #9C94DB",
"8 	c #9D95DB",
"9 	c #9D96DB",
"0 	c #8F86D6",
"a 	c #F2F1F9",
"b 	c #C3BFE8",
"c 	c #C6C1EA",
"d 	c #9C95DB",
"e 	c #9E96DB",
"f 	c #9B93DA",
"g 	c #9A92DA",
"h 	c #9991DA",
"i 	c #B1ABE2",
"j 	c #B8B3E5",
"k 	c #D3D1EE",
"l 	c #C9C4EB",
"m 	c #BFB9E7",
"n 	c #9B94DA",
"o 	c #9A91DA",
"p 	c #9990D9",
"q 	c #A19ADC",
"r 	c #9890D9",
"s 	c #9B94DB",
"t 	c #C1BBE8",
"u 	c #D6D2EF",
"v 	c #A9A2DF",
"w 	c #9C93DA",
"x 	c #A29BDD",
"y 	c #CECAEC",
"z 	c #E2E0F3",
"A 	c #E2E0F4",
"B 	c #ACA6E0",
"C 	c #9F97DC",
"D 	c #9088D7",
"E 	c #A099DC",
"F 	c #DBD8F1",
"G 	c #E2E1F3",
"H 	c #C4BFE9",
"I 	c #E4E2F4",
"J 	c #E5E3F4",
"K 	c #A69FDE",
"L 	c #9088D6",
"M 	c #C4C1EA",
"N 	c #CDC9EC",
"O 	c #B0AAE2",
"P 	c #BAB4E5",
"Q 	c #A199DC",
"R 	c #978ED9",
"S 	c #A8A1DF",
"T 	c #E5E3F5",
"U 	c #C5C0E9",
"V 	c #A19BDD",
"W 	c #D5D1EF",
"X 	c #CAC6EB",
"Y 	c #938BD8",
"Z 	c #C7C2EA",
"` 	c #DEDCF2",
" .	c #DCDAF1",
"..	c #C0BBE7",
"+.	c #ACA5E0",
"@.	c #D8D6F0",
"#.	c #E4E3F4",
"$.	c #DAD7F1",
"%.	c #D0CCED",
"&.	c #BAB5E6",
"*.	c #B2ABE2",
"=.	c #C2BDE8",
"-.	c #DCD9F1",
";.	c #D9D6F0",
">.	c #968DD8",
",.	c #AFA9E1",
"'.	c #CECBEC",
").	c #CCC9EC",
"!.	c #B4AEE3",
"~.	c #9C94DA",
"{.	c #9B93DB",
"].	c #D1CDED",
"^.	c #D3CFEE",
"/.	c #ADA7E1",
"(.	c #958DD8",
"_.	c #ECEAF7",
":.	c #BFBBE7",
"<.	c #AAA3DF",
"[.	c #938BD7",
"}.	c #988FD9",
"|.	c #ADA6E1",
"1.	c #D3D0EE",
"2.	c #A7A0DF",
"3.	c #978FD9",
"4.	c #EDEBF7",
"5.	c #DDDBF1",
"6.	c #EAE8F6",
"7.	c #A6A0DE",
"8.	c #BBB6E6",
"9.	c #CBC8EB",
"0.	c #A59FDE",
"a.	c #AAA4E0",
"b.	c #9F97DB",
"c.	c #9E97DB",
"d.	c #A098DC",
"e.	c #A29ADD",
"f.	c #A9A3E0",
"g.	c #D4D0EF",
"h.	c #B4AFE4",
"i.	c #A59EDE",
"j.	c #BDB8E6",
"k.	c #B7B1E4",
"l.	c #C9C5EA",
"m.	c #ABA4E0",
"n.	c #B2ACE2",
"o.	c #C3BEE9",
"p.	c #A69EDE",
"q.	c #B5AFE3",
"r.	c #B8B2E4",
"s.	c #CCC7EC",
"t.	c #928AD7",
"u.	c #B9B3E5",
"v.	c #AEA7E1",
"w.	c #B3ADE3",
"x.	c #C1BCE8",
"y.	c #BBB5E5",
"z.	c #B5AEE3",
"A.	c #B0A9E2",
"B.	c #C3BFE9",
"C.	c #A7A0DE",
"D.	c #A39CDD",
"E.	c #9B92DA",
"F.	c #9992DA",
"G.	c #B6B1E4",
"H.	c #D3D0EF",
"I.	c #D5D2F0",
"J.	c #C9C5EB",
"K.	c #9087D6",
"L.	c #CFCBED",
"M.	c #C1BDE8",
"N.	c #8F87D6",
"O.	c #DDDBF2",
"P.	c #958ED8",
"Q.	c #D7D4EF",
"R.	c #AFAAE2",
"S.	c #948DD8",
"T.	c #BCB8E6",
"U.	c #9F98DC",
"V.	c #ABA5E0",
"W.	c #BEBAE7",
"X.	c #C5C1E9",
"Y.	c #D6D4F0",
"Z.	c #D5D3EF",
"`.	c #D6D4EF",
" +	c #DBD9F1",
"                                                                ",
"                                                                ",
"                                                                ",
"                          . + @ # @ $                           ",
"                    % & * = - ; ; > , ' ) !                     ",
"                ~ { % ] ^ / ( _ : ( < ^ [ } | 1                 ",
"              2 3 4 5 6 7 8 8 9 9 8 9 7 6 0 | a b               ",
"            c + d ( e 8 f 7 7 g g 7 7 f e h i j k l             ",
"          m | n 6 e f f 7 o p q q h r 7 f 7 f < s 3 t           ",
"          u v : e f w d h x y z A + B r d f s C : ] &           ",
"        ! = D e f 7 8 o E F G = H I J K h 8 7 f e L M N         ",
"        + x r 7 7 f r g O N P Q R S T U 6 r f 7 7 r V W         ",
"      c X Y 8 f f 7 Z `  .@ ..+.e C @.#.$.H 7 f f 8 Y X Z       ",
"      %.&.( 8 f s f *.=.-.;.>.g ,.b '.).Z !.~.{.f 8 ( - ].      ",
"      ^./.(.8 f 7 f r 5 - _.~ ~.C :.# <.[.}.f 7 f 8 (.|.1.      ",
"      1.2.3.7 7 7 7 8 7 e W 4.-.5.6.X 7 8 8 7 7 f 7 3.7.^.      ",
"      1.K 3.7 f h h f 7 h 8 8.} 9.!.g g 7 g p g 7 7 3.0.^.      ",
"      1.a.6 7 7 7.K b.8 c.d.3.h e.Q f C g q S d.f 8 6 f.g.      ",
"      * h._ f i.j.k.l.8 v =.3.m...n.b.o.p.q.!.r.7 8 : !.^.      ",
"      s.H t.f i.u.v.- w.; x.v.v q.y.u.!.8.z.A.8.f 8 t.B.!       ",
"        * g g e d.r g +.p.e.+.i.S C.x p E D.E.e.8 E.F.*         ",
"        ^.G.t.8 g 7 7 r h g r h h h g 7 g g 7 g e t.G.H.        ",
"          + F.g 8 f 7 7 7 7 7 7 7 7 7 f 7 7 f 8 g h I.          ",
"          N J.L g 7 f 7 7 7 7 7 7 7 7 7 7 f 7 8 K.% L.          ",
"            ^.M.h 7 8 f f f {.7 7 {.f f f e f N.B.u             ",
"              * O.n t.8 9 8 7 7 7 7 8 9 7 Y P.J.Q.              ",
"                N W R.S./ 6 h E.E.h 6 / _ O @ *                 ",
"                  H & * T.f.U.f f U.V.W.' $.X.                  ",
"                        | & Y.Z.`.;. +&                         ",
"                                                                ",
"                                                                ",
"                                                                "};
